# xmcd
#
# Track frame offsets: 
#        150
#        6780
#        40976
#        46195
#        65725
#        72115
#        78570
#        103764
#        114064
#        132049
#        137566
#        143184
#        166509
#        174395
#        192782
#        200117
#        205334
#        233440
#        247074
#        259843
#        266301
#        271456
#        296784
#        306619
#        324709
#
# Disc length: 4406 seconds
#
# Revision: 0
# Processed by: cddbd v1.5.2PL0 Copyright (c) Steve Scherf et al.
# Submitted via: ExactAudioCopy v1.0b1
#
DISCID=71113419
DTITLE=Hank Williams - The Complete Mother's Best CD10
DYEAR=2010
DGENRE=Country
TTITLE0=Introduction
TTITLE1=Where the Old Red River Flows
TTITLE2=Don Helms and the Drifting Cowboys: Blue Steel Blues
TTITLE3=Thirty Pieces of Silver
TTITLE4=Closing
TTITLE5=Introduction
TTITLE6=On Top of Old Smoky
TTITLE7=Sammy Pruett and the Drifting Cowboys: Columbus Stockade Blues
TTITLE8=The Prodigal Son
TTITLE9=Closing
TTITLE10=Introduction
TTITLE11=Moanin’ the Blues
TTITLE12=Don Helms, Sammy Pruett and the Drifting Cowboys: Blue Steel Bl
TTITLE12=ues
TTITLE13=I Dreamed about Mom Last Night
TTITLE14=Closing
TTITLE15=Introduction
TTITLE16=Where the Old Red River Flows
TTITLE17=Jerry Rivers and the Drifting Cowboys: Orange Blossom Special
TTITLE18=Where He Leads Me, I Will Follow
TTITLE19=Closing
TTITLE20=Introduction
TTITLE21=I Hang My Head and Cry
TTITLE22=Jerry Rivers and the Drifting Cowboys: Tennessee Wagner
TTITLE23=At the Cross
TTITLE24=Closing
EXTD=
EXTT0=
EXTT1=
EXTT2=
EXTT3=
EXTT4=
EXTT5=
EXTT6=
EXTT7=
EXTT8=
EXTT9=
EXTT10=
EXTT11=
EXTT12=
EXTT13=
EXTT14=
EXTT15=
EXTT16=
EXTT17=
EXTT18=
EXTT19=
EXTT20=
EXTT21=
EXTT22=
EXTT23=
EXTT24=
PLAYORDER=
